<svg width="76" height="76" viewBox="0 0 76 76" fill="none" xmlns="http://www.w3.org/2000/svg">
<path d="M38 76C17.0132 76 -7.4367e-07 58.9868 -1.66103e-06 38C-2.5784e-06 17.0132 17.0132 -7.4367e-07 38 -1.66103e-06C58.9868 -2.5784e-06 76 17.0132 76 38C76 58.9868 58.9868 76 38 76Z" fill="#3435FF"/>
<path d="M20.0346 23.1562L28.4023 23.1562C28.6741 23.1562 28.9265 23.2951 29.043 23.5033L37.7601 36.8991L37.8378 37.0206C38.032 37.3502 38.1484 37.732 38.1484 38.1484C38.1484 38.5475 38.032 38.9293 37.8378 39.2763C37.8184 39.311 37.799 39.3457 37.7601 39.3804L29.043 52.7936C28.9265 53.0018 28.6741 53.1406 28.4023 53.1406L20.054 53.1406C19.8017 53.1406 19.5687 53.0192 19.4328 52.8456C19.4134 52.8283 19.4134 52.8109 19.3939 52.7936C19.3357 52.7068 19.3163 52.6027 19.3163 52.4813C19.3163 52.3771 19.3357 52.273 19.3939 52.1863L19.4522 52.0995L27.6063 39.5193C27.6257 39.4845 27.6646 39.4325 27.684 39.3978L27.684 39.3631L27.7034 39.3284C27.8975 38.964 28.014 38.5649 28.014 38.1484C28.014 37.732 27.8975 37.3329 27.7034 36.9685L27.6451 36.8817C27.6257 36.8297 27.5869 36.795 27.5481 36.7429L19.4134 24.18C19.3939 24.1627 19.3939 24.1453 19.3745 24.128C19.3163 24.0412 19.2969 23.9371 19.2969 23.8156C19.2969 23.4512 19.6269 23.1562 20.0346 23.1562Z" fill="white"/>
<path d="M51.5478 47.567L42.2967 47.567C43.8776 45.5177 45.2828 43.3123 46.8247 41.224C47.5078 40.2872 48.6202 39.1942 48.5617 37.9842C48.5226 36.8717 47.4102 35.7983 46.7856 34.9395C45.2633 32.8512 43.7605 30.7434 42.2967 28.6356L51.5478 28.6356C51.5478 29.6309 51.294 31.0166 51.9576 31.8559C52.5626 32.617 53.3628 32.6365 54.2411 32.6365C55.3145 32.6365 56.3684 32.617 56.8954 31.485C57.3052 30.6068 57.0905 29.3577 57.0905 28.4014L57.0905 25.8447C57.0905 25.1225 57.1101 24.4199 56.6026 23.8344C55.7048 22.8195 53.8898 23.1904 52.6797 23.1904L42.2772 23.1904L36.6759 23.1904C35.8171 23.1904 34.8608 23.0147 34.1582 23.6002C33.4751 24.1662 33.2019 25.2006 33.5727 26.0398C33.8655 26.7229 34.4705 27.2889 34.8608 27.9134C36.5002 30.4506 38.4129 32.8707 40.1694 35.3494C40.6573 36.0325 41.1453 36.696 41.6137 37.3791C41.7503 37.5938 42.1211 37.8866 42.1016 38.1598C42.0821 38.433 41.7308 38.7648 41.5746 38.9795C41.1062 39.6236 40.6378 40.2872 40.1889 40.9312C38.5105 43.2928 36.8711 45.6738 35.1341 47.9963C34.3534 49.0307 33.2604 50.1237 33.4556 51.4898C33.7288 53.6562 36.8125 53.0512 38.3348 53.0512L51.821 53.0512L54.3777 53.0512C55.2755 53.0512 56.0562 53.0902 56.6807 52.3291C57.1686 51.7436 57.0905 51.0214 57.0905 50.2993L57.0905 46.4545C57.0905 45.6153 57.1491 44.8346 56.505 44.1905C55.9391 43.6245 55.2364 43.605 54.4753 43.605C53.4409 43.605 52.387 43.605 51.8015 44.6199C51.3331 45.4201 51.5478 46.6497 51.5478 47.567Z" fill="white"/>
</svg>
