<svg width="181" height="76" viewBox="0 0 181 76" fill="none" xmlns="http://www.w3.org/2000/svg">
<path fill-rule="evenodd" clip-rule="evenodd" d="M76 38C76 58.9863 58.9868 76 38 76C17.0132 76 0 58.9863 0 38C0 17.0137 17.0132 0 38 0C58.9868 0 76 17.0137 76 38ZM12.0164 17H23.5626C23.9285 17 24.2944 17.1836 24.457 17.4668C24.636 17.7461 24.8151 18.0234 24.9964 18.2988C25.1858 18.5879 25.3778 18.873 25.5751 19.1543C26.4695 20.5371 27.3842 21.8984 28.2787 23.2812C28.8377 24.125 29.3916 24.9727 29.9456 25.8223C30.4995 26.6719 31.0534 27.5195 31.6125 28.3633C32.6085 29.8672 33.5639 31.4121 34.56 32.8965C35.3934 34.1152 36.3082 35.2949 36.8571 36.6777C37.3751 37.9824 36.4624 39.3066 35.7259 40.373L35.5967 40.5605C34.9247 41.5488 34.2783 42.5449 33.6298 43.5449C33.2779 44.0879 32.9254 44.6309 32.5679 45.1738C31.3352 47.0488 30.1104 48.9297 28.8836 50.8145L26.6118 54.3008L26.5563 54.3828C26.3715 54.6621 26.1867 54.9414 26.002 55.2363C25.8319 55.4902 25.6654 55.7461 25.4995 56L25.4023 56.1523C25.2041 56.457 25.0059 56.7617 24.8026 57.0664L24.6862 57.248C24.4115 57.6758 24.1516 58.082 23.5626 58.082H12.0367C11.6912 58.082 11.3659 57.9199 11.183 57.6758C11.1626 57.6562 11.1626 57.6348 11.122 57.6152C11.0991 57.5801 11.0811 57.5449 11.067 57.5078L11.0428 57.4277C11.0259 57.3535 11.0203 57.2734 11.0203 57.1875C11.0203 57.0449 11.0406 56.9043 11.122 56.7812L11.2033 56.6602L22.4649 39.4219C22.4852 39.3809 22.5462 39.2988 22.5666 39.2598V39.2188L22.5869 39.1777C22.8511 38.6699 23.0138 38.1406 23.0138 37.5723C23.0138 37.002 22.8511 36.4531 22.5869 35.9668L22.5056 35.8438C22.4898 35.7793 22.4496 35.7422 22.4038 35.6992L22.3633 35.6602L11.1626 18.4023C11.1542 18.3945 11.1493 18.3848 11.1435 18.375C11.1353 18.3613 11.1255 18.3457 11.1017 18.3223C11.0203 18.1992 11 18.0566 11 17.8945C11 17.4062 11.4675 17 12.0164 17ZM63.6288 56.6191C64.4216 55.6641 64.4623 54.4434 64.442 53.2656L64.4394 53.0332C64.4356 52.8105 64.432 52.5996 64.4623 52.4316V48.9961L64.4633 48.6562C64.4702 47.2012 64.4771 45.7383 63.3646 44.625C62.2669 43.5273 60.9049 43.5273 59.9698 43.5273H59.7869C58.5672 43.5273 56.5751 43.5273 55.4774 45.418C55.0098 46.2109 54.9285 47.1055 54.9285 47.8379C54.9285 48.002 54.9285 48.1738 54.9334 48.3457C54.9364 48.4492 54.9412 48.5508 54.9489 48.6504C52.1436 48.6504 49.318 48.6504 46.4925 48.6719C47.8341 46.6992 49.1961 44.748 50.5987 42.8164C50.8232 42.5059 51.0705 42.1914 51.3227 41.8711C52.3724 40.5332 53.5062 39.0898 53.4243 37.3691C53.3836 36.3125 52.8347 35.377 52.3469 34.666C52.0826 34.2793 51.798 33.9336 51.5541 33.6289C51.5338 33.5879 51.4931 33.5684 51.4728 33.5273C51.2492 33.2422 51.0662 33.0195 50.9036 32.7949C50.416 32.125 49.9306 31.4531 49.4472 30.7812C48.419 29.3496 47.4002 27.9121 46.3908 26.4727H54.9285C54.9082 26.7988 54.8879 27.1445 54.9082 27.5098C54.9285 28.3223 55.0912 29.3594 55.7416 30.1934C56.88 31.6367 58.4656 31.6367 59.5429 31.6367H59.6039C60.2544 31.6367 61.1082 31.6367 61.901 31.3926C62.7954 31.1074 63.5679 30.5391 64.0557 29.4824C64.4216 28.6895 64.4826 27.7949 64.4826 27.043C64.4826 26.6562 64.4623 26.291 64.442 25.9453C64.4291 25.7129 64.4162 25.5137 64.4085 25.3262C64.4041 25.2188 64.4013 25.1152 64.4013 25.0098V21.5547C64.4013 20.6992 64.4013 19.4199 63.4865 18.3633C62.3685 17.082 60.7016 17.0605 59.1364 17.1016C54.8788 17.2148 50.6212 17.1895 46.3637 17.1641C44.5432 17.1543 42.7228 17.1426 40.9023 17.1426C40.2089 17.1426 39.5074 17.1211 38.8038 17.0996C37.5684 17.0625 36.3263 17.0234 35.1089 17.1016C34.438 17.1426 33.6249 17.3262 32.9135 17.916C31.6531 18.9512 31.1449 20.8418 31.8361 22.4082C32.1003 22.998 32.4662 23.4844 32.7711 23.8906L32.9948 24.1758C33.2387 24.4805 33.4217 24.7051 33.5843 24.9688C34.925 27.0391 36.4189 29.0723 37.8987 31.084L38.0361 31.2715L39.147 32.791L40.4754 34.625L41.2275 35.6816C41.2539 35.7344 41.2887 35.7793 41.321 35.8203L41.3698 35.8848C41.3902 35.8848 41.3902 35.9062 41.4105 35.9258C41.7154 36.3926 41.8781 36.9414 41.8781 37.5527C41.8781 38.1406 41.7154 38.7109 41.4105 39.1777C41.3495 39.2793 41.2885 39.3613 41.2275 39.4414L40.4958 40.4785C40.201 40.9062 39.9012 41.3281 39.6013 41.75C39.3015 42.1719 39.0016 42.5938 38.7069 43.0195C37.5075 44.7285 36.3082 46.4355 35.0682 48.123C34.7706 48.5332 34.4481 48.9375 34.1231 49.3457C33.2717 50.4141 32.4029 51.5059 31.9174 52.7578C31.3279 54.3027 31.5312 56.2129 32.9541 57.2285C33.6249 57.7168 34.438 57.9199 35.1699 58.002C35.9016 58.082 36.6741 58.0625 37.3449 58.043C37.6092 58.0215 37.8328 58.0215 38.0564 58.002C38.4426 57.9805 38.7476 57.9609 39.0525 57.9609H53.3023C55.1725 57.9609 57.063 58.002 58.9534 57.9609L59.424 57.959C60.9941 57.9551 62.5384 57.9492 63.6288 56.6191Z" fill="white"/>
<path d="M85.3889 22.8056L89.3889 21.4444C89.8704 22.3333 90.6019 23.0741 91.5834 23.6667C92.5834 24.2593 93.6204 24.5556 94.6945 24.5556C95.75 24.5556 96.5926 24.3056 97.2222 23.8056C97.8704 23.287 98.1945 22.6389 98.1945 21.8611C98.1945 20.9722 97.8334 20.2685 97.1111 19.75C96.3889 19.213 95.3241 18.7037 93.9167 18.2222C91.7315 17.5 90.2685 16.9444 89.5278 16.5556C87.3241 15.3519 86.2222 13.5741 86.2222 11.2222C86.2222 9.2963 86.9908 7.74074 88.5278 6.55556C90.0648 5.35185 92.0371 4.75 94.4445 4.75C96.5185 4.75 98.2685 5.24074 99.6945 6.22222C101.139 7.18519 102.204 8.43519 102.889 9.97222L99 11.25C97.7778 9.56481 96.25 8.72222 94.4167 8.72222C93.3611 8.72222 92.5278 8.9537 91.9167 9.41667C91.3056 9.86111 91 10.4537 91 11.1944C91 11.5093 91.0463 11.7963 91.1389 12.0556C91.2315 12.3148 91.4074 12.5556 91.6667 12.7778C91.9445 13 92.176 13.1852 92.3611 13.3333C92.5648 13.4815 92.8982 13.6481 93.3611 13.8333C93.8426 14.0185 94.1945 14.1574 94.4167 14.25C94.6574 14.3241 95.0834 14.4537 95.6945 14.6389C96.3241 14.8241 96.7408 14.9537 96.9445 15.0278C97.7778 15.3056 98.5185 15.6111 99.1667 15.9444C99.8334 16.2778 100.472 16.7037 101.083 17.2222C101.694 17.7222 102.167 18.3519 102.5 19.1111C102.833 19.8704 103 20.7222 103 21.6667C103 23.8333 102.194 25.5185 100.583 26.7222C98.9908 27.9074 96.9908 28.5 94.5834 28.5C92.4908 28.5 90.6204 27.9907 88.9722 26.9722C87.3241 25.9537 86.1297 24.5648 85.3889 22.8056ZM105.583 9.5V4.94444H110.056V9.5H105.583ZM105.639 28V11.2778H110.028V28H105.639ZM117.472 19.3056C117.472 20.8426 117.75 22.0185 118.306 22.8333C118.861 23.6296 119.593 24.0278 120.5 24.0278C121.407 24.0278 122.13 23.6296 122.667 22.8333C123.204 22.037 123.472 20.8611 123.472 19.3056C123.472 17.7685 123.194 16.5926 122.639 15.7778C122.102 14.963 121.389 14.5556 120.5 14.5556C119.574 14.5556 118.833 14.9722 118.278 15.8056C117.741 16.6204 117.472 17.787 117.472 19.3056ZM112.917 19.3333C112.917 16.7037 113.574 14.6204 114.889 13.0833C116.222 11.5463 117.898 10.7778 119.917 10.7778C120.787 10.7778 121.528 10.9815 122.139 11.3889C122.75 11.7963 123.194 12.2407 123.472 12.7222V11.2778H127.917V25.4722C127.917 28.6204 127.269 30.9352 125.972 32.4167C124.694 33.9167 122.75 34.6667 120.139 34.6667C117.232 34.6667 114.991 33.5556 113.417 31.3333L116.306 29.2778C117.324 30.5185 118.63 31.1389 120.222 31.1389C121.056 31.1389 121.778 30.8333 122.389 30.2222C123.019 29.6111 123.37 28.8241 123.444 27.8611C123.5 27.1944 123.528 26.6574 123.528 26.25C123.194 26.6944 122.685 27.0648 122 27.3611C121.333 27.6574 120.685 27.8056 120.056 27.8056C117.944 27.8056 116.222 27.037 114.889 25.5C113.574 23.963 112.917 21.9074 112.917 19.3333ZM131.222 28V11.2778H135.472V12.8611H135.5C135.685 12.6019 135.917 12.3426 136.194 12.0833C136.491 11.8056 136.954 11.5185 137.583 11.2222C138.213 10.9259 138.861 10.7778 139.528 10.7778C141.269 10.7778 142.574 11.6111 143.444 13.2778C144.5 11.6111 146.111 10.7778 148.278 10.7778C149.278 10.7778 150.13 10.9537 150.833 11.3056C151.556 11.6574 152.111 12.1574 152.5 12.8056C152.889 13.4352 153.167 14.1204 153.333 14.8611C153.5 15.5833 153.583 16.3889 153.583 17.2778V28H149.139V17.3611C149.139 16.4167 149 15.713 148.722 15.25C148.444 14.787 147.982 14.5556 147.333 14.5556C146.482 14.5556 145.806 14.9167 145.306 15.6389C144.824 16.3426 144.583 17.1852 144.583 18.1667V28H140.194V17.25C140.194 16.4167 140.037 15.7593 139.722 15.2778C139.426 14.7963 138.982 14.5556 138.389 14.5556C137.482 14.5556 136.796 14.8889 136.333 15.5556C135.889 16.2037 135.667 17.0741 135.667 18.1667V28H131.222ZM160.389 23.0556C160.389 23.5556 160.583 23.9815 160.972 24.3333C161.361 24.6667 161.861 24.8333 162.472 24.8333C163.454 24.8333 164.287 24.5 164.972 23.8333C165.657 23.1667 166 22.2778 166 21.1667V20.0556C164.926 20.3148 164.074 20.4907 163.444 20.5833C161.407 20.8796 160.389 21.7037 160.389 23.0556ZM155.889 23.4444C155.889 21.9259 156.472 20.6667 157.639 19.6667C158.806 18.6667 160.519 18 162.778 17.6667C164.63 17.3704 165.704 17.1759 166 17.0833V16.2222C166 15.537 165.759 15.037 165.278 14.7222C164.815 14.3889 164.204 14.2222 163.444 14.2222C161.704 14.2222 160.204 14.9074 158.944 16.2778L156.333 14.0278C158.148 11.8611 160.5 10.7778 163.389 10.7778C165.944 10.7778 167.759 11.3889 168.833 12.6111C169.907 13.8333 170.444 15.5648 170.444 17.8056V28H166.139V26.2778C165.806 26.9074 165.25 27.4352 164.472 27.8611C163.694 28.287 162.806 28.5 161.806 28.5C159.991 28.5 158.546 28.037 157.472 27.1111C156.417 26.1667 155.889 24.9444 155.889 23.4444ZM85.3889 58.8056L89.3889 57.4444C89.8704 58.3333 90.6019 59.0741 91.5834 59.6667C92.5834 60.2593 93.6204 60.5556 94.6945 60.5556C95.75 60.5556 96.5926 60.3056 97.2222 59.8056C97.8704 59.287 98.1945 58.6389 98.1945 57.8611C98.1945 56.9722 97.8334 56.2685 97.1111 55.75C96.3889 55.213 95.3241 54.7037 93.9167 54.2222C91.7315 53.5 90.2685 52.9444 89.5278 52.5556C87.3241 51.3519 86.2222 49.5741 86.2222 47.2222C86.2222 45.2963 86.9908 43.7407 88.5278 42.5556C90.0648 41.3519 92.0371 40.75 94.4445 40.75C96.5185 40.75 98.2685 41.2407 99.6945 42.2222C101.139 43.1852 102.204 44.4352 102.889 45.9722L99 47.25C97.7778 45.5648 96.25 44.7222 94.4167 44.7222C93.3611 44.7222 92.5278 44.9537 91.9167 45.4167C91.3056 45.8611 91 46.4537 91 47.1944C91 47.5093 91.0463 47.7963 91.1389 48.0556C91.2315 48.3148 91.4074 48.5556 91.6667 48.7778C91.9445 49 92.176 49.1852 92.3611 49.3333C92.5648 49.4815 92.8982 49.6481 93.3611 49.8333C93.8426 50.0185 94.1945 50.1574 94.4167 50.25C94.6574 50.3241 95.0834 50.4537 95.6945 50.6389C96.3241 50.8241 96.7408 50.9537 96.9445 51.0278C97.7778 51.3056 98.5185 51.6111 99.1667 51.9444C99.8334 52.2778 100.472 52.7037 101.083 53.2222C101.694 53.7222 102.167 54.3519 102.5 55.1111C102.833 55.8704 103 56.7222 103 57.6667C103 59.8333 102.194 61.5185 100.583 62.7222C98.9908 63.9074 96.9908 64.5 94.5834 64.5C92.4908 64.5 90.6204 63.9907 88.9722 62.9722C87.3241 61.9537 86.1297 60.5648 85.3889 58.8056ZM104.556 55.6389C104.556 52.8981 105.296 50.7407 106.778 49.1667C108.259 47.5741 110.148 46.7778 112.444 46.7778C114.222 46.7778 115.694 47.3241 116.861 48.4167C118.028 49.5093 118.75 50.7315 119.028 52.0833L115.278 53.1111C115.093 52.4259 114.769 51.8333 114.306 51.3333C113.843 50.8148 113.25 50.5556 112.528 50.5556C111.417 50.5556 110.574 51.037 110 52C109.426 52.963 109.139 54.1759 109.139 55.6389C109.139 57.287 109.454 58.5463 110.083 59.4167C110.732 60.287 111.546 60.7222 112.528 60.7222C113.343 60.7222 114.028 60.4444 114.583 59.8889C115.139 59.3333 115.5 58.6944 115.667 57.9722L119.417 58.9722C119.102 60.4167 118.296 61.7037 117 62.8333C115.704 63.9444 114.185 64.5 112.444 64.5C110.111 64.5 108.213 63.6944 106.75 62.0833C105.287 60.4722 104.556 58.3241 104.556 55.6389ZM121.75 64V40.5556H126.139V48.3611H126.222C127.222 47.3056 128.5 46.7778 130.056 46.7778C130.778 46.7778 131.454 46.8889 132.083 47.1111C132.732 47.3333 133.333 47.6852 133.889 48.1667C134.463 48.6296 134.917 49.3056 135.25 50.1944C135.583 51.0648 135.75 52.0926 135.75 53.2778V64H131.306V53.7778C131.306 51.6296 130.62 50.5556 129.25 50.5556C128.343 50.5556 127.593 50.963 127 51.7778C126.426 52.5741 126.139 53.5185 126.139 54.6111V64H121.75ZM142.667 55.6389C142.667 57.4722 143.009 58.7778 143.694 59.5556C144.38 60.3333 145.139 60.7222 145.972 60.7222C146.324 60.7222 146.667 60.6481 147 60.5C147.352 60.3333 147.704 60.0833 148.056 59.75C148.407 59.3981 148.694 58.8704 148.917 58.1667C149.139 57.4444 149.25 56.6019 149.25 55.6389C149.25 54.6574 149.139 53.8148 148.917 53.1111C148.713 52.4074 148.426 51.8796 148.056 51.5278C147.704 51.1759 147.352 50.9259 147 50.7778C146.667 50.6296 146.324 50.5556 145.972 50.5556C145.139 50.5556 144.38 50.9444 143.694 51.7222C143.009 52.4815 142.667 53.787 142.667 55.6389ZM138.111 55.6389C138.111 54.4907 138.259 53.4074 138.556 52.3889C138.852 51.3519 139.296 50.4074 139.889 49.5556C140.5 48.7037 141.324 48.0278 142.361 47.5278C143.417 47.0278 144.62 46.7778 145.972 46.7778C147.324 46.7778 148.519 47.0278 149.556 47.5278C150.593 48.0278 151.407 48.7037 152 49.5556C152.611 50.4074 153.065 51.3519 153.361 52.3889C153.657 53.4074 153.806 54.4907 153.806 55.6389C153.806 56.3796 153.741 57.1204 153.611 57.8611C153.482 58.5833 153.232 59.3611 152.861 60.1944C152.509 61.0093 152.056 61.7315 151.5 62.3611C150.944 62.9722 150.185 63.4815 149.222 63.8889C148.278 64.2963 147.194 64.5 145.972 64.5C144.769 64.5 143.694 64.3056 142.75 63.9167C141.806 63.5278 141.046 63.037 140.472 62.4444C139.898 61.8333 139.426 61.1296 139.056 60.3333C138.704 59.5185 138.454 58.7315 138.306 57.9722C138.176 57.213 138.111 56.4352 138.111 55.6389ZM160.056 55.6389C160.056 57.4722 160.398 58.7778 161.083 59.5556C161.769 60.3333 162.528 60.7222 163.361 60.7222C163.713 60.7222 164.056 60.6481 164.389 60.5C164.741 60.3333 165.093 60.0833 165.444 59.75C165.796 59.3981 166.083 58.8704 166.306 58.1667C166.528 57.4444 166.639 56.6019 166.639 55.6389C166.639 54.6574 166.528 53.8148 166.306 53.1111C166.102 52.4074 165.815 51.8796 165.444 51.5278C165.093 51.1759 164.741 50.9259 164.389 50.7778C164.056 50.6296 163.713 50.5556 163.361 50.5556C162.528 50.5556 161.769 50.9444 161.083 51.7222C160.398 52.4815 160.056 53.787 160.056 55.6389ZM155.5 55.6389C155.5 54.4907 155.648 53.4074 155.944 52.3889C156.241 51.3519 156.685 50.4074 157.278 49.5556C157.889 48.7037 158.713 48.0278 159.75 47.5278C160.806 47.0278 162.009 46.7778 163.361 46.7778C164.713 46.7778 165.907 47.0278 166.944 47.5278C167.982 48.0278 168.796 48.7037 169.389 49.5556C170 50.4074 170.454 51.3519 170.75 52.3889C171.046 53.4074 171.194 54.4907 171.194 55.6389C171.194 56.3796 171.13 57.1204 171 57.8611C170.87 58.5833 170.62 59.3611 170.25 60.1944C169.898 61.0093 169.444 61.7315 168.889 62.3611C168.333 62.9722 167.574 63.4815 166.611 63.8889C165.667 64.2963 164.583 64.5 163.361 64.5C162.157 64.5 161.083 64.3056 160.139 63.9167C159.194 63.5278 158.435 63.037 157.861 62.4444C157.287 61.8333 156.815 61.1296 156.444 60.3333C156.093 59.5185 155.843 58.7315 155.694 57.9722C155.565 57.213 155.5 56.4352 155.5 55.6389ZM174.028 64V40.5556H178.472V64H174.028Z" fill="white"/>
</svg>
